<?xml version="1.0" encoding="utf-8"?>
<!-- Generator: Adobe Illustrator 23.0.3, SVG Export Plug-In . SVG Version: 6.00 Build 0)  -->
<svg version="1.1" id="Layer_1" xmlns="http://www.w3.org/2000/svg" xmlns:xlink="http://www.w3.org/1999/xlink" x="0px" y="0px"
	 viewBox="0 0 179.35 27.05" style="enable-background:new 0 0 179.35 27.05;" xml:space="preserve">
<style type="text/css">
	.st0{fill:#1C2AE5;}
</style>
<g>
	<g>
		<path d="M68.64,11.62l-1.62-0.67c-0.67-0.22-0.98-0.39-0.98-0.76c0-0.36,0.31-0.7,0.92-0.7c0.36,0,0.73,0.08,1.04,0.31
			c0.64,0.48,1.09,0.76,1.99,0.5l1.01-0.28c1.15-0.31,1.65-1.23,0.9-2.21c-1.18-1.48-2.86-2.07-4.87-2.07
			c-3.39,0-5.99,1.9-5.99,4.84c0,3.22,3.78,4.17,4.59,4.48l1.68,0.62c0.87,0.31,0.98,0.5,0.98,0.78c0,0.48-0.53,0.73-1.37,0.73
			c-0.7,0-1.29-0.14-1.74-0.53c-0.76-0.7-1.12-1.18-2.07-0.95l-1.12,0.25c-1.06,0.25-1.65,1.01-1.18,2.04
			c0.98,2.1,3.14,3.08,6.1,3.08c3.42,0,6.41-1.46,6.41-4.76C73.26,14.31,71.83,12.74,68.64,11.62z M84.96,5.74
			c-1.9,0-3.42,0.81-4.2,2.13V7.73c0-1.09-0.59-1.68-1.68-1.68h-2.41C75.58,6.05,75,6.64,75,7.73v17.64c0,1.09,0.59,1.68,1.68,1.68
			h2.41c1.09,0,1.68-0.59,1.68-1.68v-6.44c0.78,1.34,2.3,2.16,4.2,2.16c3.92,0,6.92-3.22,6.92-7.67
			C91.88,8.96,88.88,5.74,84.96,5.74z M83.4,16.69c-1.68,0-2.72-1.43-2.72-3.28c0-1.85,1.04-3.28,2.72-3.28s2.72,1.43,2.72,3.28
			C86.11,15.26,85.08,16.69,83.4,16.69z M97.7,0.53H95.3c-1.09,0-1.68,0.59-1.68,1.68V19.1c0,1.09,0.59,1.68,1.68,1.68h2.41
			c1.09,0,1.68-0.59,1.68-1.68V2.21C99.38,1.12,98.8,0.53,97.7,0.53z M116.32,6.05h-2.41c-1.09,0-1.68,0.59-1.68,1.68V7.9
			c-0.78-1.34-2.3-2.16-4.2-2.16c-3.92,0-6.92,3.22-6.92,7.67c0,4.45,3,7.67,6.92,7.67c1.9,0,3.42-0.81,4.2-2.13v0.14
			c0,1.09,0.59,1.68,1.68,1.68h2.41c1.09,0,1.68-0.59,1.68-1.68V7.73C118,6.64,117.42,6.05,116.32,6.05z M109.6,16.69
			c-1.68,0-2.72-1.43-2.72-3.28c0-1.85,1.04-3.28,2.72-3.28s2.72,1.43,2.72,3.28C112.32,15.26,111.28,16.69,109.6,16.69z M123.35,0
			c-2.18,0-3.22,1.12-3.22,2.58s1.15,2.58,3.22,2.58s3.22-1.12,3.22-2.58S125.54,0,123.35,0z M124.56,6.05h-2.41
			c-1.09,0-1.68,0.59-1.68,1.68V19.1c0,1.09,0.59,1.68,1.68,1.68h2.41c1.09,0,1.68-0.59,1.68-1.68V7.73
			C126.24,6.64,125.65,6.05,124.56,6.05z M138.56,5.74c-1.99,0-3.28,0.81-4.09,2.13V7.73c0-1.09-0.59-1.68-1.68-1.68h-2.41
			c-1.09,0-1.68,0.59-1.68,1.68V19.1c0,1.09,0.59,1.68,1.68,1.68h2.41c1.09,0,1.68-0.59,1.68-1.68v-6.38c0-1.15,0.22-2.49,1.71-2.49
			s1.74,1.34,1.74,2.49v6.38c0,1.09,0.59,1.68,1.68,1.68H142c1.09,0,1.68-0.59,1.68-1.68v-6.94C143.68,9.74,143.12,5.74,138.56,5.74
			z M153.45,5.74c-5.32,0-8.23,3.7-8.23,7.73c0,4.23,3.22,7.62,8.65,7.62c1.9,0,3.89-0.42,5.54-1.48c0.92-0.62,0.98-1.54,0.34-2.38
			l-0.45-0.59c-0.62-0.84-1.37-0.9-2.32-0.45c-1.01,0.48-1.93,0.59-2.6,0.59c-2.49,0-3.78-1.4-3.78-2.21h9.24
			c1.04,0,1.74-0.39,1.74-1.32C161.57,8.54,158.1,5.74,153.45,5.74z M150.6,11.9c0.08-1.43,1.48-2.13,2.88-2.13
			c1.43,0,2.8,0.7,2.88,2.13H150.6z M177.67,0.53h-2.41c-1.09,0-1.68,0.59-1.68,1.68V7.9c-0.78-1.34-2.3-2.16-4.2-2.16
			c-3.92,0-6.92,3.22-6.92,7.67c0,4.45,3,7.67,6.92,7.67c1.9,0,3.42-0.81,4.2-2.13v0.14c0,1.09,0.59,1.68,1.68,1.68h2.41
			c1.09,0,1.68-0.59,1.68-1.68V2.21C179.35,1.12,178.76,0.53,177.67,0.53z M170.95,16.69c-1.68,0-2.72-1.43-2.72-3.28
			c0-1.85,1.04-3.28,2.72-3.28c1.68,0,2.72,1.43,2.72,3.28C173.67,15.26,172.63,16.69,170.95,16.69z"/>
	</g>
</g>
<path class="st0" d="M1.61,20.78h2.46c1.06,0,1.68-0.56,1.76-1.6l0.59-7.34l2.83,7.42c0.34,0.92,0.98,1.32,1.93,1.32h1.01
	c0.95,0,1.6-0.39,1.93-1.32l2.83-7.42l0.59,7.34c0.08,1.04,0.7,1.6,1.76,1.6h2.46c1.12,0,1.71-0.62,1.6-1.76L21.88,2.77
	c-0.08-1.04-0.7-1.6-1.74-1.6h-2.6c-0.95,0-1.57,0.42-1.93,1.32l-3.92,9.83L7.77,2.49C7.41,1.6,6.79,1.18,5.84,1.18h-2.6
	c-1.04,0-1.65,0.56-1.74,1.6L0.01,19.01C-0.1,20.16,0.49,20.78,1.61,20.78z"/>
<path class="st0" d="M33.31,21.08c1.9,0,3.89-0.42,5.54-1.48c0.92-0.62,0.98-1.54,0.34-2.38l-0.45-0.59
	c-0.62-0.84-1.37-0.9-2.32-0.45c-1.01,0.48-1.93,0.59-2.6,0.59c-2.49,0-3.78-1.4-3.78-2.21h9.24c1.04,0,1.74-0.39,1.74-1.32
	c0-4.7-3.47-7.5-8.12-7.5c-5.32,0-8.23,3.7-8.23,7.73C24.65,17.7,27.87,21.08,33.31,21.08z M30.03,11.9
	c0.08-1.43,1.48-2.13,2.88-2.13c1.43,0,2.8,0.7,2.88,2.13H30.03z"/>
<path class="st0" d="M48.82,21.08c1.9,0,3.42-0.81,4.2-2.13v0.14c0,1.09,0.59,1.68,1.68,1.68h2.41c1.09,0,1.68-0.59,1.68-1.68V2.21
	c0-1.09-0.59-1.68-1.68-1.68H54.7c-1.09,0-1.68,0.59-1.68,1.68V7.9c-0.78-1.34-2.3-2.16-4.2-2.16c-3.92,0-6.92,3.22-6.92,7.67
	S44.9,21.08,48.82,21.08z M50.39,16.69c-1.68,0-2.72-1.43-2.72-3.28s1.04-3.28,2.72-3.28c1.68,0,2.72,1.43,2.72,3.28
	S52.07,16.69,50.39,16.69z"/>
</svg>
